<svg height="804" width="1132" xmlns:xlink="http://www.w3.org/1999/xlink" xmlns:ev="http://www.w3.org/2001/xml-events" viewBox="0 0 1132 804" xmlns="http://www.w3.org/2000/svg"><style type="text/css"><![CDATA[
.st5 {fill:#000000;font-family:Arial;font-size:12pt;font-weight:bold}
.st2 {fill:#000000;font-family:Arial;font-size:18pt}
.st1 {fill:#454545;font-family:Arial;font-size:36pt}
.st3 {fill:#ffffff;font-family:Arial;font-size:48pt;font-weight:bold}
.st4 {fill:#ffffff;font-family:Arial;font-size:49pt;font-weight:bold}
]]></style><defs/><g transform="translate(5,5)" id="page1"><rect height="794" width="1123" stroke="#808080" fill="#fffbf7" x="0" y="0"/><g transform="translate(143,39)" id="shape1"><text class="st1"><tspan x="22" y="47.4">Carreira Desenvolvedor Java - Alura</tspan></text></g><g transform="translate(339.36,101)"><path stroke="#fed789" fill="#fdb933" fill-opacity="0.58" stroke-opacity="0.58" d="M0,0L72.4,0L72.4,7.5L0,7.5L0,0z" id="shape2"/><path stroke="#dae892" fill="#bed742" fill-opacity="0.58" stroke-opacity="0.58" transform="translate(72.4,0)" d="M0,0L72.4,0L72.4,7.5L0,7.5L0,0z" id="shape3"/><path stroke="#6cd1ee" fill="#00b0e1" fill-opacity="0.58" stroke-opacity="0.58" transform="translate(144.37,0)" d="M0,0L72.4,0L72.4,7.5L0,7.5L0,0z" id="shape4"/><path stroke="#ae6cea" fill="#7200da" fill-opacity="0.58" stroke-opacity="0.58" transform="translate(217.19,0)" d="M0,0L72.4,0L72.4,7.5L0,7.5L0,0z" id="shape5"/><path stroke="#fd8872" fill="#fb310b" fill-opacity="0.58" stroke-opacity="0.58" transform="translate(289.59,0)" d="M0,0L72.4,0L72.4,7.5L0,7.5L0,0z" id="shape6"/><path stroke="#d7799a" fill="#b91750" fill-opacity="0.58" stroke-opacity="0.58" transform="translate(361.99,0)" d="M0,0L72.4,0L72.4,7.5L0,7.5L0,0z" id="shape7"/></g><g transform="translate(622.32,212.09)" id="shape8"><text class="st2"><tspan x="4.5" y="38.2">Java I: Primeiros passos</tspan></text></g><g transform="translate(622.32,574.77)" id="shape9"><text class="st2"><tspan x="4.5" y="24.2">Java 8: Tire proveito dos novos </tspan><tspan x="4.5" y="52.2">recursos da linguagem</tspan></text></g><g transform="translate(622.32,393.43)" id="shape10"><text class="st2"><tspan x="4.5" y="38.2">Java III: Principais APIs e bibliotecas</tspan></text></g><g transform="translate(622.32,484.1)" id="shape11"><text class="st2"><tspan x="4.5" y="38.2">Java: Dominando as Collections</tspan></text></g><g transform="translate(622.32,302.76)" id="shape12"><text class="st2"><tspan x="4.5" y="38.2">Java II: Orientação a Objetos</tspan></text></g><g transform="translate(181.21,168.85)"><g transform="translate(140.74,73.9)" id="shape13"><path stroke-dasharray="2.5,2.5" stroke="#fec657" stroke-width="4" fill="none" d="M0,0L271.3,0"/><path stroke-width="4" stroke="#fec657" fill="none" stroke-linejoin="round" d="M287.3,0C287.3,4.4,283.7,8,279.3,8C274.8,8,271.3,4.4,271.3,0C271.3,-4.4,274.8,-8,279.3,-8C283.7,-8,287.3,-4.4,287.3,0" stroke-linecap="round"/></g><g><path stroke="#fed789" fill="#fdb933" fill-opacity="0.58" stroke-opacity="0.58" d="M85,1.3L147.5,63.8C149.3,65.6,149.2,68.5,147.4,70.4L70.4,147.4C68.5,149.2,65.6,149.3,63.8,147.5L1.3,85C-0.5,83.2,-0.4,80.3,1.4,78.4L78.4,1.4C80.3,-0.4,83.2,-0.5,85,1.3z" id="shape14"/><g id="shape15"><path stroke="#fed789" fill="#fdb933" fill-opacity="0.58" stroke-opacity="0.58" d="M147.5,85L85,147.5C83.2,149.3,80.3,149.2,78.4,147.4L1.4,70.4C-0.4,68.5,-0.5,65.6,1.3,63.8L63.8,1.3C65.6,-0.5,68.5,-0.4,70.4,1.4L147.4,78.4C149.2,80.3,149.3,83.2,147.5,85z"/><text class="st3"><tspan x="56.4" y="96.9">1</tspan></text></g></g></g><g transform="translate(86.21,261.85)"><path stroke="#dae892" fill="#bed742" fill-opacity="0.58" stroke-opacity="0.58" d="M85,1.3L147.5,63.8C149.3,65.6,149.2,68.5,147.4,70.4L70.4,147.4C68.5,149.2,65.6,149.3,63.8,147.5L1.3,85C-0.5,83.2,-0.4,80.3,1.4,78.4L78.4,1.4C80.3,-0.4,83.2,-0.5,85,1.3z" id="shape16"/><g><g id="shape17"><path stroke="#dae892" fill="#bed742" fill-opacity="0.58" stroke-opacity="0.58" d="M147.5,85L85,147.5C83.2,149.3,80.3,149.2,78.4,147.4L1.4,70.4C-0.4,68.5,-0.5,65.6,1.3,63.8L63.8,1.3C65.6,-0.5,68.5,-0.4,70.4,1.4L147.4,78.4C149.2,80.3,149.3,83.2,147.5,85z"/><text class="st4"><tspan x="56.4" y="96.9">2</tspan></text></g><g><g transform="translate(141.74,73.9)" id="shape18"><path stroke-dasharray="2.5,2.5" stroke="#cade64" stroke-width="4" fill="none" d="M0,0L365.3,0"/><path stroke-width="4" stroke="#cade64" fill="none" stroke-linejoin="round" d="M381.3,0C381.3,4.4,377.7,8,373.3,8C368.8,8,365.3,4.4,365.3,0C365.3,-4.4,368.8,-8,373.3,-8C377.7,-8,381.3,-4.4,381.3,0" stroke-linecap="round"/></g></g></g></g><g transform="translate(181.21,349.03)"><g transform="translate(140.74,73.9)" id="shape19"><path stroke-dasharray="2.5,2.5" stroke="#2ebee7" stroke-width="4" fill="none" d="M0,0L271.3,0"/><path stroke-width="4" stroke="#2ebee7" fill="none" stroke-linejoin="round" d="M287.3,0C287.3,4.4,283.7,8,279.3,8C274.8,8,271.3,4.4,271.3,0C271.3,-4.4,274.8,-8,279.3,-8C283.7,-8,287.3,-4.4,287.3,0" stroke-linecap="round"/></g><path stroke="#6cd1ee" fill="#00b0e1" fill-opacity="0.58" stroke-opacity="0.58" d="M85,1.3L147.5,63.8C149.3,65.6,149.2,68.5,147.4,70.4L70.4,147.4C68.5,149.2,65.6,149.3,63.8,147.5L1.3,85C-0.5,83.2,-0.4,80.3,1.4,78.4L78.4,1.4C80.3,-0.4,83.2,-0.5,85,1.3z" id="shape20"/><g id="shape21"><path stroke="#6cd1ee" fill="#00b0e1" fill-opacity="0.58" stroke-opacity="0.58" d="M147.5,85L85,147.5C83.2,149.3,80.3,149.2,78.4,147.4L1.4,70.4C-0.4,68.5,-0.5,65.6,1.3,63.8L63.8,1.3C65.6,-0.5,68.5,-0.4,70.4,1.4L147.4,78.4C149.2,80.3,149.3,83.2,147.5,85z"/><text class="st4"><tspan x="56.4" y="96.9">3</tspan></text></g></g><g transform="translate(86.21,442.03)"><g transform="translate(141.74,73.9)" id="shape22"><path stroke-dasharray="2.5,2.5" stroke="#8c2ee1" stroke-width="4" fill="none" d="M0,0L365.3,0"/><path stroke-width="4" stroke="#8c2ee1" fill="none" stroke-linejoin="round" d="M381.3,0C381.3,4.4,377.7,8,373.3,8C368.8,8,365.3,4.4,365.3,0C365.3,-4.4,368.8,-8,373.3,-8C377.7,-8,381.3,-4.4,381.3,0" stroke-linecap="round"/></g><path stroke="#ae6cea" fill="#7200da" fill-opacity="0.58" stroke-opacity="0.58" d="M85,1.3L147.5,63.8C149.3,65.6,149.2,68.5,147.4,70.4L70.4,147.4C68.5,149.2,65.6,149.3,63.8,147.5L1.3,85C-0.5,83.2,-0.4,80.3,1.4,78.4L78.4,1.4C80.3,-0.4,83.2,-0.5,85,1.3z" id="shape23"/><g id="shape24"><path stroke="#ae6cea" fill="#7200da" fill-opacity="0.58" stroke-opacity="0.58" d="M147.5,85L85,147.5C83.2,149.3,80.3,149.2,78.4,147.4L1.4,70.4C-0.4,68.5,-0.5,65.6,1.3,63.8L63.8,1.3C65.6,-0.5,68.5,-0.4,70.4,1.4L147.4,78.4C149.2,80.3,149.3,83.2,147.5,85z"/><text class="st4"><tspan x="56.4" y="96.9">4</tspan></text></g></g><g transform="translate(181.21,529.2)"><g transform="translate(144.74,73.9)" id="shape25"><path stroke-dasharray="2.5,2.5" stroke="#fc5636" stroke-width="4" fill="none" d="M0,0L267.3,0"/><path stroke-width="4" stroke="#fc5636" fill="none" stroke-linejoin="round" d="M283.3,0C283.3,4.4,279.7,8,275.3,8C270.8,8,267.3,4.4,267.3,0C267.3,-4.4,270.8,-8,275.3,-8C279.7,-8,283.3,-4.4,283.3,0" stroke-linecap="round"/></g><path stroke="#fd8872" fill="#fb310b" fill-opacity="0.58" stroke-opacity="0.58" d="M85,1.3L147.5,63.8C149.3,65.6,149.2,68.5,147.4,70.4L70.4,147.4C68.5,149.2,65.6,149.3,63.8,147.5L1.3,85C-0.5,83.2,-0.4,80.3,1.4,78.4L78.4,1.4C80.3,-0.4,83.2,-0.5,85,1.3z" id="shape26"/><g id="shape27"><path stroke="#fd8872" fill="#fb310b" fill-opacity="0.58" stroke-opacity="0.58" d="M147.5,85L85,147.5C83.2,149.3,80.3,149.2,78.4,147.4L1.4,70.4C-0.4,68.5,-0.5,65.6,1.3,63.8L63.8,1.3C65.6,-0.5,68.5,-0.4,70.4,1.4L147.4,78.4C149.2,80.3,149.3,83.2,147.5,85z"/><text class="st4"><tspan x="56.4" y="96.9">5</tspan></text></g></g><g transform="translate(406.83,751)" id="shape28"><text class="st5"><tspan x="4.4" y="21.7">Desenvolvido por: Danilo Righetto</tspan></text></g></g></svg>